# xmcd
#
# Track frame offsets:
#	151
#	13745
#	25272
#	38621
#	52980
#	68067
#	81542
#	95665
#	110468
#	122025
#	133360
#	150657
#	168269
#	182544
#	197125
#
# Disc length: 2774 seconds
#
# Revision: 1
# Processed by: cddbd v1.4PL0 Copyright (c) Steve Scherf et al.
# Submitted via: audiograbber 1.80
#
DISCID=c80ad40f
DTITLE=Fausto Paretti - LOVE and SAX
DYEAR=1900
DGENRE=
TTITLE0=Live and let die
TTITLE1=A blue shadow
TTITLE2=A whiter shade of pale
TTITLE3=Rain and tears
TTITLE4=This guy`s in love with you
TTITLE5=I`ll never fall in love again
TTITLE6=You are the first, the last, my everything
TTITLE7=September morn`
TTITLE8=Song sung blue
TTITLE9=Smoke gets in your eyes
TTITLE10=Song for you
TTITLE11=If you leave me now
TTITLE12=Are you lonesome tonight
TTITLE13=Woman in love
TTITLE14=Blue moon
EXTD=
EXTT0=
EXTT1=
EXTT2=
EXTT3=
EXTT4=
EXTT5=
EXTT6=
EXTT7=
EXTT8=
EXTT9=
EXTT10=
EXTT11=
EXTT12=
EXTT13=
EXTT14=
PLAYORDER=
